<svg width="100" height="100" viewBox="0 0 100 100" fill="none" xmlns="http://www.w3.org/2000/svg">
<rect x="1" y="1" width="98" height="98" rx="49" fill="white" fill-opacity="0.2"/>
<rect x="1" y="1" width="98" height="98" rx="49" fill="url(#paint0_linear_161_1094)"/>
<path d="M80.625 41.25C80.625 41.8302 80.3945 42.3866 79.9843 42.7968C79.5741 43.207 79.0177 43.4375 78.4375 43.4375H74.0625V47.8125C74.0625 48.3927 73.832 48.9491 73.4218 49.3593C73.0116 49.7695 72.4552 50 71.875 50C71.2948 50 70.7384 49.7695 70.3282 49.3593C69.918 48.9491 69.6875 48.3927 69.6875 47.8125V43.4375H65.3125C64.7323 43.4375 64.1759 43.207 63.7657 42.7968C63.3555 42.3866 63.125 41.8302 63.125 41.25C63.125 40.6698 63.3555 40.1134 63.7657 39.7032C64.1759 39.293 64.7323 39.0625 65.3125 39.0625H69.6875V34.6875C69.6875 34.1073 69.918 33.5509 70.3282 33.1407C70.7384 32.7305 71.2948 32.5 71.875 32.5C72.4552 32.5 73.0116 32.7305 73.4218 33.1407C73.832 33.5509 74.0625 34.1073 74.0625 34.6875V39.0625H78.4375C79.0177 39.0625 79.5741 39.293 79.9843 39.7032C80.3945 40.1134 80.625 40.6698 80.625 41.25ZM54.375 30.3125H56.5625V32.5C56.5625 33.0802 56.793 33.6366 57.2032 34.0468C57.6134 34.457 58.1698 34.6875 58.75 34.6875C59.3302 34.6875 59.8866 34.457 60.2968 34.0468C60.707 33.6366 60.9375 33.0802 60.9375 32.5V30.3125H63.125C63.7052 30.3125 64.2616 30.082 64.6718 29.6718C65.082 29.2616 65.3125 28.7052 65.3125 28.125C65.3125 27.5448 65.082 26.9884 64.6718 26.5782C64.2616 26.168 63.7052 25.9375 63.125 25.9375H60.9375V23.75C60.9375 23.1698 60.707 22.6134 60.2968 22.2032C59.8866 21.793 59.3302 21.5625 58.75 21.5625C58.1698 21.5625 57.6134 21.793 57.2032 22.2032C56.793 22.6134 56.5625 23.1698 56.5625 23.75V25.9375H54.375C53.7948 25.9375 53.2384 26.168 52.8282 26.5782C52.418 26.9884 52.1875 27.5448 52.1875 28.125C52.1875 28.7052 52.418 29.2616 52.8282 29.6718C53.2384 30.082 53.7948 30.3125 54.375 30.3125ZM72.1867 56.1059C68.3067 56.8724 64.2977 56.6716 60.5137 55.5211C56.7298 54.3706 53.2874 52.3058 50.4908 49.5092C47.6942 46.7126 45.6294 43.2702 44.4789 39.4863C43.3284 35.7023 43.1276 31.6933 43.8941 27.8133C43.9692 27.4325 43.9417 27.0386 43.8143 26.672C43.6869 26.3054 43.4643 25.9793 43.1693 25.7271C42.8742 25.475 42.5174 25.3059 42.1355 25.2371C41.7535 25.1684 41.3601 25.2025 40.9957 25.3359C36.8535 26.8506 33.1597 29.3845 30.2554 32.7037C27.3511 36.0229 25.3299 40.0204 24.3786 44.327C23.4272 48.6337 23.5763 53.1106 24.812 57.3444C26.0478 61.5781 28.3304 65.4323 31.449 68.551C34.5677 71.6696 38.4219 73.9522 42.6556 75.188C46.8894 76.4237 51.3663 76.5728 55.673 75.6214C59.9796 74.6701 63.9771 72.6489 67.2963 69.7446C70.6155 66.8403 73.1494 63.1465 74.6641 59.0043C74.7975 58.6399 74.8316 58.2465 74.7629 57.8645C74.6941 57.4826 74.525 57.1258 74.2729 56.8307C74.0207 56.5357 73.6946 56.3131 73.328 56.1857C72.9614 56.0583 72.5675 56.0308 72.1867 56.1059Z" fill="#F8F8F8"/>
<rect x="1" y="1" width="98" height="98" rx="49" stroke="url(#paint1_linear_161_1094)" stroke-width="2"/>
<defs>
<linearGradient id="paint0_linear_161_1094" x1="0" y1="0" x2="100" y2="0" gradientUnits="userSpaceOnUse">
<stop stop-color="#7E32DA"/>
<stop offset="1" stop-color="#E52EA1"/>
</linearGradient>
<linearGradient id="paint1_linear_161_1094" x1="0" y1="0" x2="100" y2="0" gradientUnits="userSpaceOnUse">
<stop stop-color="#7E32DA"/>
<stop offset="1" stop-color="#E52EA1"/>
</linearGradient>
</defs>
</svg>
