<svg width="120" height="120" viewBox="0 0 120 120" fill="none" xmlns="http://www.w3.org/2000/svg">
<rect width="120" height="120" rx="60" fill="url(#paint0_linear_98_4860)"/>
<path d="M60 73.75C64.3082 73.745 68.4386 72.0314 71.485 68.985C74.5314 65.9386 76.245 61.8082 76.25 57.5V40C76.25 35.6902 74.5379 31.557 71.4905 28.5095C68.443 25.462 64.3098 23.75 60 23.75C55.6902 23.75 51.557 25.462 48.5095 28.5095C45.462 31.557 43.75 35.6902 43.75 40V57.5C43.755 61.8082 45.4686 65.9386 48.515 68.985C51.5614 72.0314 55.6918 73.745 60 73.75ZM51.25 40C51.25 37.6794 52.1719 35.4538 53.8128 33.8128C55.4538 32.1719 57.6794 31.25 60 31.25C62.3206 31.25 64.5462 32.1719 66.1872 33.8128C67.8281 35.4538 68.75 37.6794 68.75 40V57.5C68.75 59.8206 67.8281 62.0462 66.1872 63.6872C64.5462 65.3281 62.3206 66.25 60 66.25C57.6794 66.25 55.4538 65.3281 53.8128 63.6872C52.1719 62.0462 51.25 59.8206 51.25 57.5V40ZM63.75 86.0062V92.5C63.75 93.4946 63.3549 94.4484 62.6516 95.1516C61.9484 95.8549 60.9946 96.25 60 96.25C59.0054 96.25 58.0516 95.8549 57.3483 95.1516C56.6451 94.4484 56.25 93.4946 56.25 92.5V86.0062C49.3376 85.0875 42.9935 81.6915 38.3957 76.4489C33.7979 71.2062 31.2588 64.4732 31.25 57.5C31.25 56.5054 31.6451 55.5516 32.3483 54.8483C33.0516 54.1451 34.0054 53.75 35 53.75C35.9946 53.75 36.9484 54.1451 37.6517 54.8483C38.3549 55.5516 38.75 56.5054 38.75 57.5C38.75 63.1358 40.9888 68.5409 44.974 72.526C48.9591 76.5112 54.3641 78.75 60 78.75C65.6358 78.75 71.0409 76.5112 75.026 72.526C79.0112 68.5409 81.25 63.1358 81.25 57.5C81.25 56.5054 81.6451 55.5516 82.3484 54.8483C83.0516 54.1451 84.0054 53.75 85 53.75C85.9946 53.75 86.9484 54.1451 87.6516 54.8483C88.3549 55.5516 88.75 56.5054 88.75 57.5C88.7412 64.4732 86.2021 71.2062 81.6043 76.4489C77.0065 81.6915 70.6624 85.0875 63.75 86.0062Z" fill="#F8F8F8"/>
<defs>
<linearGradient id="paint0_linear_98_4860" x1="0" y1="0" x2="120" y2="0" gradientUnits="userSpaceOnUse">
<stop stop-color="#7E32DA"/>
<stop offset="1" stop-color="#E52EA1"/>
</linearGradient>
</defs>
</svg>
