<svg width="100" height="100" viewBox="0 0 100 100" fill="none" xmlns="http://www.w3.org/2000/svg">
<rect x="1" y="1" width="98" height="98" rx="49" fill="white"/>
<rect x="1" y="1" width="98" height="98" rx="49" fill="url(#paint0_linear_161_1093)" fill-opacity="0.2"/>
<path d="M47.8125 25.9375V19.375C47.8125 18.7948 48.043 18.2384 48.4532 17.8282C48.8634 17.418 49.4198 17.1875 50 17.1875C50.5802 17.1875 51.1366 17.418 51.5468 17.8282C51.957 18.2384 52.1875 18.7948 52.1875 19.375V25.9375C52.1875 26.5177 51.957 27.0741 51.5468 27.4843C51.1366 27.8945 50.5802 28.125 50 28.125C49.4198 28.125 48.8634 27.8945 48.4532 27.4843C48.043 27.0741 47.8125 26.5177 47.8125 25.9375ZM50 32.5C46.5388 32.5 43.1554 33.5264 40.2775 35.4493C37.3997 37.3722 35.1566 40.1053 33.8321 43.303C32.5076 46.5007 32.161 50.0194 32.8363 53.4141C33.5115 56.8087 35.1782 59.927 37.6256 62.3744C40.073 64.8218 43.1913 66.4885 46.5859 67.1637C49.9806 67.839 53.4993 67.4924 56.697 66.1679C59.8947 64.8434 62.6278 62.6003 64.5507 59.7225C66.4736 56.8446 67.5 53.4612 67.5 50C67.4949 45.3603 65.6496 40.912 62.3688 37.6312C59.088 34.3504 54.6397 32.5051 50 32.5ZM30.9523 34.0477C31.3628 34.4581 31.9195 34.6887 32.5 34.6887C33.0805 34.6887 33.6372 34.4581 34.0477 34.0477C34.4581 33.6372 34.6887 33.0805 34.6887 32.5C34.6887 31.9195 34.4581 31.3628 34.0477 30.9523L29.6727 26.5773C29.2622 26.1669 28.7055 25.9363 28.125 25.9363C27.5445 25.9363 26.9878 26.1669 26.5773 26.5773C26.1669 26.9878 25.9363 27.5445 25.9363 28.125C25.9363 28.7055 26.1669 29.2622 26.5773 29.6727L30.9523 34.0477ZM30.9523 65.9523L26.5773 70.3273C26.1669 70.7378 25.9363 71.2945 25.9363 71.875C25.9363 72.4555 26.1669 73.0122 26.5773 73.4227C26.9878 73.8331 27.5445 74.0637 28.125 74.0637C28.7055 74.0637 29.2622 73.8331 29.6727 73.4227L34.0477 69.0477C34.2509 68.8444 34.4121 68.6031 34.5221 68.3376C34.6321 68.072 34.6887 67.7874 34.6887 67.5C34.6887 67.2126 34.6321 66.928 34.5221 66.6624C34.4121 66.3969 34.2509 66.1556 34.0477 65.9523C33.8444 65.7491 33.6031 65.5879 33.3376 65.4779C33.072 65.3679 32.7874 65.3113 32.5 65.3113C32.2126 65.3113 31.928 65.3679 31.6624 65.4779C31.3969 65.5879 31.1556 65.7491 30.9523 65.9523ZM67.5 34.6875C67.7873 34.6877 68.0719 34.6313 68.3375 34.5215C68.603 34.4118 68.8444 34.2507 69.0477 34.0477L73.4227 29.6727C73.8331 29.2622 74.0637 28.7055 74.0637 28.125C74.0637 27.5445 73.8331 26.9878 73.4227 26.5773C73.0122 26.1669 72.4555 25.9363 71.875 25.9363C71.2945 25.9363 70.7378 26.1669 70.3273 26.5773L65.9523 30.9523C65.6461 31.2583 65.4375 31.6482 65.3529 32.0728C65.2684 32.4973 65.3117 32.9374 65.4774 33.3374C65.6431 33.7373 65.9237 34.079 66.2838 34.3194C66.6438 34.5597 67.0671 34.6878 67.5 34.6875ZM69.0477 65.9523C68.6372 65.5419 68.0805 65.3113 67.5 65.3113C66.9195 65.3113 66.3628 65.5419 65.9523 65.9523C65.5419 66.3628 65.3113 66.9195 65.3113 67.5C65.3113 68.0805 65.5419 68.6372 65.9523 69.0477L70.3273 73.4227C70.5306 73.6259 70.7719 73.7871 71.0374 73.8971C71.303 74.0071 71.5876 74.0637 71.875 74.0637C72.1624 74.0637 72.447 74.0071 72.7126 73.8971C72.9781 73.7871 73.2194 73.6259 73.4227 73.4227C73.6259 73.2194 73.7871 72.9781 73.8971 72.7126C74.0071 72.447 74.0637 72.1624 74.0637 71.875C74.0637 71.5876 74.0071 71.303 73.8971 71.0374C73.7871 70.7719 73.6259 70.5306 73.4227 70.3273L69.0477 65.9523ZM28.125 50C28.125 49.4198 27.8945 48.8634 27.4843 48.4532C27.0741 48.043 26.5177 47.8125 25.9375 47.8125H19.375C18.7948 47.8125 18.2384 48.043 17.8282 48.4532C17.418 48.8634 17.1875 49.4198 17.1875 50C17.1875 50.5802 17.418 51.1366 17.8282 51.5468C18.2384 51.957 18.7948 52.1875 19.375 52.1875H25.9375C26.5177 52.1875 27.0741 51.957 27.4843 51.5468C27.8945 51.1366 28.125 50.5802 28.125 50ZM50 71.875C49.4198 71.875 48.8634 72.1055 48.4532 72.5157C48.043 72.9259 47.8125 73.4823 47.8125 74.0625V80.625C47.8125 81.2052 48.043 81.7616 48.4532 82.1718C48.8634 82.582 49.4198 82.8125 50 82.8125C50.5802 82.8125 51.1366 82.582 51.5468 82.1718C51.957 81.7616 52.1875 81.2052 52.1875 80.625V74.0625C52.1875 73.4823 51.957 72.9259 51.5468 72.5157C51.1366 72.1055 50.5802 71.875 50 71.875ZM80.625 47.8125H74.0625C73.4823 47.8125 72.9259 48.043 72.5157 48.4532C72.1055 48.8634 71.875 49.4198 71.875 50C71.875 50.5802 72.1055 51.1366 72.5157 51.5468C72.9259 51.957 73.4823 52.1875 74.0625 52.1875H80.625C81.2052 52.1875 81.7616 51.957 82.1718 51.5468C82.582 51.1366 82.8125 50.5802 82.8125 50C82.8125 49.4198 82.582 48.8634 82.1718 48.4532C81.7616 48.043 81.2052 47.8125 80.625 47.8125Z" fill="url(#paint1_linear_161_1093)"/>
<rect x="1" y="1" width="98" height="98" rx="49" stroke="url(#paint2_linear_161_1093)" stroke-width="2"/>
<defs>
<linearGradient id="paint0_linear_161_1093" x1="0" y1="0" x2="100" y2="0" gradientUnits="userSpaceOnUse">
<stop stop-color="#7E32DA"/>
<stop offset="1" stop-color="#E52EA1"/>
</linearGradient>
<linearGradient id="paint1_linear_161_1093" x1="17.1875" y1="17.1875" x2="82.8125" y2="17.1875" gradientUnits="userSpaceOnUse">
<stop stop-color="#7E32DA"/>
<stop offset="1" stop-color="#E52EA1"/>
</linearGradient>
<linearGradient id="paint2_linear_161_1093" x1="0" y1="0" x2="100" y2="0" gradientUnits="userSpaceOnUse">
<stop stop-color="#7E32DA"/>
<stop offset="1" stop-color="#E52EA1"/>
</linearGradient>
</defs>
</svg>
