<svg width="112" height="25" viewBox="0 0 112 25" fill="none" xmlns="http://www.w3.org/2000/svg">
<path d="M9.8 19.24C8.504 19.24 7.288 19 6.152 18.52C5.032 18.024 4.048 17.344 3.2 16.48C2.368 15.6 1.712 14.576 1.232 13.408C0.768 12.24 0.536 10.976 0.536 9.616C0.536 8.272 0.768 7.024 1.232 5.872C1.712 4.704 2.368 3.688 3.2 2.824C4.048 1.944 5.032 1.256 6.152 0.759999C7.272 0.263999 8.488 0.0159998 9.8 0.0159998C11.032 0.0159998 12.088 0.176 12.968 0.495999C13.864 0.815999 14.76 1.344 15.656 2.08C15.784 2.176 15.88 2.28 15.944 2.392C16.024 2.488 16.072 2.592 16.088 2.704C16.12 2.8 16.136 2.92 16.136 3.064C16.136 3.368 16.024 3.624 15.8 3.832C15.592 4.024 15.336 4.136 15.032 4.168C14.728 4.184 14.432 4.08 14.144 3.856C13.552 3.344 12.936 2.952 12.296 2.68C11.672 2.408 10.84 2.272 9.8 2.272C8.856 2.272 7.968 2.464 7.136 2.848C6.304 3.232 5.568 3.76 4.928 4.432C4.304 5.104 3.816 5.888 3.464 6.784C3.112 7.664 2.936 8.608 2.936 9.616C2.936 10.64 3.112 11.6 3.464 12.496C3.816 13.376 4.304 14.152 4.928 14.824C5.568 15.496 6.304 16.024 7.136 16.408C7.968 16.776 8.856 16.96 9.8 16.96C10.616 16.96 11.384 16.824 12.104 16.552C12.84 16.264 13.544 15.872 14.216 15.376C14.504 15.168 14.784 15.08 15.056 15.112C15.344 15.128 15.584 15.24 15.776 15.448C15.968 15.64 16.064 15.912 16.064 16.264C16.064 16.424 16.032 16.584 15.968 16.744C15.904 16.888 15.808 17.024 15.68 17.152C14.816 17.84 13.888 18.36 12.896 18.712C11.92 19.064 10.888 19.24 9.8 19.24ZM21.0403 14.224C20.6883 14.224 20.3923 14.112 20.1523 13.888C19.9283 13.648 19.8163 13.352 19.8163 13V1.48C19.8163 1.112 19.9283 0.816 20.1523 0.592C20.3923 0.368 20.6883 0.256 21.0403 0.256C21.4083 0.256 21.7043 0.368 21.9283 0.592C22.1523 0.816 22.2643 1.112 22.2643 1.48V13C22.2643 13.352 22.1523 13.648 21.9283 13.888C21.7043 14.112 21.4083 14.224 21.0403 14.224ZM30.9043 19.024C30.5523 19.024 30.2563 18.912 30.0163 18.688C29.7923 18.448 29.6803 18.152 29.6803 17.8V11.896C29.6803 10.984 29.5123 10.24 29.1763 9.664C28.8403 9.088 28.3843 8.664 27.8083 8.392C27.2483 8.104 26.6003 7.96 25.8643 7.96C25.1923 7.96 24.5843 8.096 24.0403 8.368C23.4963 8.64 23.0643 9.008 22.7443 9.472C22.4243 9.92 22.2643 10.44 22.2643 11.032H20.7523C20.7523 10.024 20.9923 9.128 21.4723 8.344C21.9683 7.544 22.6403 6.912 23.4883 6.448C24.3363 5.984 25.2883 5.752 26.3443 5.752C27.4483 5.752 28.4323 5.992 29.2963 6.472C30.1763 6.936 30.8643 7.624 31.3603 8.536C31.8723 9.448 32.1283 10.568 32.1283 11.896V17.8C32.1283 18.152 32.0083 18.448 31.7682 18.688C31.5443 18.912 31.2563 19.024 30.9043 19.024ZM21.0403 19.024C20.6883 19.024 20.3923 18.912 20.1523 18.688C19.9283 18.448 19.8163 18.152 19.8163 17.8V7.096C19.8163 6.728 19.9283 6.432 20.1523 6.208C20.3923 5.984 20.6883 5.872 21.0403 5.872C21.4083 5.872 21.7043 5.984 21.9283 6.208C22.1523 6.432 22.2643 6.728 22.2643 7.096V17.8C22.2643 18.152 22.1523 18.448 21.9283 18.688C21.7043 18.912 21.4083 19.024 21.0403 19.024ZM41.6711 19.096C40.5031 19.096 39.4551 18.808 38.5271 18.232C37.5991 17.64 36.8631 16.848 36.3191 15.856C35.7911 14.848 35.5271 13.712 35.5271 12.448C35.5271 11.184 35.8151 10.048 36.3911 9.04C36.9831 8.032 37.7751 7.24 38.7671 6.664C39.7751 6.072 40.9031 5.776 42.1511 5.776C43.3991 5.776 44.5191 6.072 45.5111 6.664C46.5031 7.24 47.2871 8.032 47.8631 9.04C48.4551 10.048 48.7511 11.184 48.7511 12.448H47.8151C47.8151 13.712 47.5431 14.848 46.9991 15.856C46.4711 16.848 45.7431 17.64 44.8151 18.232C43.8871 18.808 42.8391 19.096 41.6711 19.096ZM42.1511 16.936C42.9671 16.936 43.6951 16.744 44.3351 16.36C44.9751 15.96 45.4791 15.424 45.8471 14.752C46.2151 14.064 46.3991 13.296 46.3991 12.448C46.3991 11.584 46.2151 10.816 45.8471 10.144C45.4791 9.456 44.9751 8.92 44.3351 8.536C43.6951 8.136 42.9671 7.936 42.1511 7.936C41.3511 7.936 40.6231 8.136 39.9671 8.536C39.3271 8.92 38.8151 9.456 38.4311 10.144C38.0631 10.816 37.8791 11.584 37.8791 12.448C37.8791 13.296 38.0631 14.064 38.4311 14.752C38.8151 15.424 39.3271 15.96 39.9671 16.36C40.6231 16.744 41.3511 16.936 42.1511 16.936ZM47.5271 19.024C47.1751 19.024 46.8791 18.912 46.6391 18.688C46.4151 18.448 46.3031 18.152 46.3031 17.8V14.128L46.7591 11.584L48.7511 12.448V17.8C48.7511 18.152 48.6311 18.448 48.3911 18.688C48.1671 18.912 47.8791 19.024 47.5271 19.024ZM57.1704 19C56.3704 19 55.6504 18.8 55.0104 18.4C54.3704 17.984 53.8664 17.424 53.4984 16.72C53.1304 16.016 52.9464 15.224 52.9464 14.344V2.896C52.9464 2.544 53.0584 2.256 53.2824 2.032C53.5064 1.808 53.7944 1.696 54.1464 1.696C54.4984 1.696 54.7864 1.808 55.0104 2.032C55.2344 2.256 55.3464 2.544 55.3464 2.896V14.344C55.3464 14.984 55.5224 15.52 55.8744 15.952C56.2264 16.384 56.6584 16.6 57.1704 16.6H57.9864C58.2744 16.6 58.5144 16.712 58.7064 16.936C58.9144 17.16 59.0184 17.448 59.0184 17.8C59.0184 18.152 58.8824 18.44 58.6104 18.664C58.3544 18.888 58.0184 19 57.6024 19H57.1704ZM51.8424 8.416C51.5064 8.416 51.2344 8.32 51.0264 8.128C50.8184 7.936 50.7144 7.696 50.7144 7.408C50.7144 7.088 50.8184 6.832 51.0264 6.64C51.2344 6.448 51.5064 6.352 51.8424 6.352H57.3864C57.7224 6.352 57.9944 6.448 58.2024 6.64C58.4104 6.832 58.5144 7.088 58.5144 7.408C58.5144 7.696 58.4104 7.936 58.2024 8.128C57.9944 8.32 57.7224 8.416 57.3864 8.416H51.8424ZM66.8032 19C66.0032 19 65.2832 18.8 64.6432 18.4C64.0032 17.984 63.4992 17.424 63.1312 16.72C62.7632 16.016 62.5792 15.224 62.5792 14.344V2.896C62.5792 2.544 62.6912 2.256 62.9152 2.032C63.1392 1.808 63.4272 1.696 63.7792 1.696C64.1312 1.696 64.4192 1.808 64.6432 2.032C64.8672 2.256 64.9792 2.544 64.9792 2.896V14.344C64.9792 14.984 65.1552 15.52 65.5072 15.952C65.8592 16.384 66.2912 16.6 66.8032 16.6H67.6192C67.9072 16.6 68.1472 16.712 68.3392 16.936C68.5472 17.16 68.6512 17.448 68.6512 17.8C68.6512 18.152 68.5152 18.44 68.2432 18.664C67.9872 18.888 67.6512 19 67.2352 19H66.8032ZM61.4752 8.416C61.1392 8.416 60.8672 8.32 60.6592 8.128C60.4512 7.936 60.3472 7.696 60.3472 7.408C60.3472 7.088 60.4512 6.832 60.6592 6.64C60.8672 6.448 61.1392 6.352 61.4752 6.352H67.0192C67.3552 6.352 67.6272 6.448 67.8352 6.64C68.0432 6.832 68.1472 7.088 68.1472 7.408C68.1472 7.696 68.0432 7.936 67.8352 8.128C67.6272 8.32 67.3552 8.416 67.0192 8.416H61.4752ZM74.012 24.76C73.852 24.76 73.66 24.712 73.436 24.616C72.732 24.296 72.54 23.792 72.86 23.104L80.18 6.568C80.5 5.896 81.004 5.704 81.692 5.992C82.412 6.296 82.612 6.8 82.292 7.504L74.948 24.016C74.756 24.512 74.444 24.76 74.012 24.76ZM76.844 18.472C76.54 18.6 76.252 18.616 75.98 18.52C75.724 18.408 75.516 18.2 75.356 17.896L69.86 7.456C69.7 7.152 69.676 6.864 69.788 6.592C69.916 6.304 70.132 6.096 70.436 5.968C70.74 5.84 71.028 5.832 71.3 5.944C71.572 6.04 71.78 6.24 71.924 6.544L77.18 16.984C77.34 17.288 77.396 17.584 77.348 17.872C77.316 18.144 77.148 18.344 76.844 18.472ZM91.1248 19C90.6768 19 90.3328 18.808 90.0928 18.424C89.8528 18.04 89.8288 17.632 90.0208 17.2L96.7648 1.096C97.0048 0.535999 97.3968 0.256 97.9408 0.256C98.5168 0.256 98.9088 0.535999 99.1168 1.096L105.885 17.248C106.061 17.696 106.029 18.104 105.789 18.472C105.565 18.824 105.221 19 104.757 19C104.517 19 104.285 18.936 104.061 18.808C103.853 18.664 103.701 18.472 103.605 18.232L97.6528 3.448H98.3248L92.2768 18.232C92.1648 18.488 91.9968 18.68 91.7728 18.808C91.5648 18.936 91.3488 19 91.1248 19ZM92.3968 14.872L93.3568 12.808H102.765L103.725 14.872H92.3968ZM109.992 19C109.64 19 109.344 18.88 109.104 18.64C108.864 18.4 108.744 18.104 108.744 17.752V1.504C108.744 1.136 108.864 0.839999 109.104 0.615999C109.344 0.375999 109.64 0.256 109.992 0.256C110.36 0.256 110.656 0.375999 110.88 0.615999C111.12 0.839999 111.24 1.136 111.24 1.504V17.752C111.24 18.104 111.12 18.4 110.88 18.64C110.656 18.88 110.36 19 109.992 19Z" fill="#F8F8F8"/>
</svg>
