<svg width="32" height="32" viewBox="0 0 32 32" fill="none" xmlns="http://www.w3.org/2000/svg">
<g id="Gear">
<path id="Vector" d="M18.3822 10.4924C17.293 10.0214 16.0885 9.884 14.9212 10.0975C13.7539 10.3111 12.6761 10.866 11.8242 11.6921C10.9722 12.5181 10.3844 13.5783 10.135 14.7385C9.88553 15.8987 9.98574 17.1068 10.4229 18.21C10.8601 19.3132 11.6146 20.262 12.591 20.9364C13.5674 21.6109 14.7219 21.9806 15.9084 21.9989C17.095 22.0172 18.2603 21.6832 19.2571 21.0392C20.2538 20.3952 21.0372 19.4701 21.5082 18.3809C22.138 16.9201 22.1626 15.2691 21.5765 13.7902C20.9905 12.3113 19.8417 11.1252 18.3822 10.4924ZM14.4134 19.6711C13.6873 19.3571 13.0705 18.8348 12.6412 18.1703C12.2119 17.5059 11.9892 16.729 12.0014 15.9379C12.0136 15.1469 12.2601 14.3773 12.7097 13.7263C13.1593 13.0754 13.7919 12.5724 14.5273 12.2809C15.2628 11.9895 16.0682 11.9227 16.8417 12.0889C17.6151 12.2552 18.3219 12.6471 18.8726 13.2151C19.4233 13.7831 19.7933 14.5016 19.9356 15.2798C20.078 16.058 19.9864 16.861 19.6724 17.5871C19.2514 18.5609 18.4608 19.3274 17.4745 19.7183C16.4883 20.1091 15.3871 20.0921 14.4134 19.6711ZM25.9903 20.6131C26.0664 20.4499 26.1378 20.2846 26.2047 20.1174L28.8412 18.719C28.9795 18.6455 29.0986 18.5406 29.189 18.4126C29.2793 18.2847 29.3383 18.1373 29.3613 17.9824C29.5368 16.8062 29.5549 15.6119 29.4152 14.4309C29.3969 14.2763 29.3428 14.1281 29.2571 13.9982C29.1714 13.8682 29.0566 13.7601 28.9218 13.6823L26.3313 12.2027C26.2697 12.0344 26.2045 11.87 26.1359 11.7096L26.9944 8.84234C27.0393 8.69317 27.0487 8.53558 27.0219 8.38212C26.9951 8.22867 26.9328 8.0836 26.84 7.95848C26.132 7.00322 25.3006 6.14596 24.3675 5.40906C24.2445 5.31202 24.1004 5.24524 23.9469 5.2141C23.7933 5.18296 23.6346 5.18832 23.4835 5.22977L20.6144 6.01017C20.4492 5.93873 20.284 5.8673 20.1188 5.79586L18.7188 3.16274C18.6453 3.02443 18.5404 2.90531 18.4125 2.81498C18.2845 2.72465 18.1371 2.66564 17.9822 2.64269C16.806 2.46778 15.6117 2.44964 14.4307 2.58874C14.2761 2.60705 14.128 2.6612 13.998 2.74686C13.8681 2.83253 13.7599 2.94734 13.6821 3.08217L12.2005 5.67728C12.0319 5.73965 11.8676 5.80478 11.7075 5.87265L8.84367 5.00615C8.6945 4.96127 8.53691 4.95185 8.38345 4.97865C8.23 5.00546 8.08493 5.06775 7.95981 5.16055C7.00455 5.86853 6.14729 6.69993 5.41039 7.63305C5.31335 7.75605 5.24657 7.90012 5.21543 8.05366C5.18429 8.2072 5.18965 8.36591 5.2311 8.51699L6.0115 11.3861C5.94006 11.5513 5.86863 11.7165 5.79719 11.8818L3.16407 13.2817C3.02576 13.3552 2.90664 13.4601 2.81631 13.5881C2.72598 13.716 2.66697 13.8634 2.64402 14.0183C2.46854 15.1945 2.45039 16.3888 2.59007 17.5698C2.60838 17.7244 2.66253 17.8725 2.74819 18.0025C2.83386 18.1325 2.94867 18.2406 3.0835 18.3184L5.67402 19.798C5.7364 19.9666 5.80152 20.131 5.86939 20.2911L5.00748 23.1568C4.96259 23.306 4.95318 23.4636 4.97998 23.6171C5.00679 23.7705 5.06908 23.9156 5.16188 24.0407C5.86986 24.996 6.70126 25.8532 7.63438 26.5901C7.75738 26.6872 7.90145 26.7539 8.05499 26.7851C8.20853 26.8162 8.36724 26.8109 8.51832 26.7694L11.3874 25.989C11.5507 26.065 11.7159 26.1365 11.8831 26.2033L13.2815 28.8399C13.355 28.9782 13.46 29.0973 13.5879 29.1876C13.7158 29.278 13.8632 29.337 14.0181 29.3599C15.1943 29.5354 16.3887 29.5536 17.5697 29.4139C17.7242 29.3956 17.8724 29.3414 18.0023 29.2558C18.1323 29.1701 18.2405 29.0553 18.3182 28.9205L19.7979 26.3299C19.9661 26.2683 20.1305 26.2032 20.2909 26.1346L23.1582 26.993C23.3074 27.0379 23.4649 27.0473 23.6184 27.0205C23.7719 26.9937 23.9169 26.9314 24.042 26.8386C24.9973 26.1307 25.8546 25.2993 26.5915 24.3661C26.6885 24.2431 26.7553 24.0991 26.7864 23.9455C26.8176 23.792 26.8122 23.6333 26.7708 23.4822L25.9903 20.6131ZM24.4656 19.0686C24.3417 19.4087 24.1979 19.7412 24.035 20.0645C23.9231 20.2857 23.8974 20.5405 23.9628 20.7796L24.7112 23.5177C24.2677 24.0307 23.7795 24.5032 23.2523 24.9297L20.5323 24.1022C20.2957 24.0296 20.0405 24.0474 19.8162 24.1521C19.488 24.305 19.151 24.4385 18.8071 24.552C18.572 24.6293 18.3739 24.7912 18.2512 25.0061L16.8431 27.4723C16.1668 27.5228 15.4875 27.513 14.813 27.443L13.4816 24.9348C13.375 24.7342 13.2033 24.576 12.9947 24.486L12.9396 24.4622C12.5995 24.3382 12.267 24.1945 11.9438 24.0315C11.7226 23.9197 11.4678 23.894 11.2287 23.9593L8.48426 24.7065C7.97133 24.2629 7.49882 23.7747 7.07232 23.2475L7.8983 20.531C7.97087 20.2943 7.9531 20.0392 7.84841 19.8149C7.69552 19.4866 7.562 19.1497 7.44855 18.8058C7.37118 18.5707 7.20935 18.3726 6.99438 18.2499L4.5287 16.8406C4.47817 16.1644 4.488 15.485 4.55806 14.8105L7.06621 13.4791C7.28517 13.363 7.45319 13.1697 7.53771 12.9367C7.66162 12.5966 7.80541 12.264 7.96833 11.9408C8.08018 11.7196 8.10592 11.4648 8.04055 11.2257L7.29404 8.48293C7.73757 7.97 8.22581 7.49749 8.75298 7.07099L11.4695 7.89697C11.7062 7.96954 11.9613 7.95177 12.1856 7.84708C12.5139 7.69419 12.8508 7.56067 13.1947 7.44722C13.4306 7.37004 13.6293 7.20793 13.7523 6.9924L15.1599 4.52737C15.8362 4.47684 16.5155 4.48667 17.19 4.55673L18.5214 7.06488C18.6376 7.28384 18.8309 7.45186 19.0639 7.53638C19.404 7.66029 19.7365 7.80408 20.0597 7.967C20.2809 8.07885 20.5357 8.10459 20.7748 8.03922L23.5176 7.29271C24.0305 7.73624 24.503 8.22448 24.9295 8.75165L24.1036 11.4682C24.031 11.7049 24.0488 11.96 24.1534 12.1843C24.3063 12.5126 24.4399 12.8495 24.5533 13.1934C24.6307 13.4285 24.7925 13.6266 25.0075 13.7493L27.4736 15.1575C27.5242 15.8337 27.5144 16.5131 27.4443 17.1875L24.9361 18.519C24.7152 18.636 24.5461 18.8316 24.4622 19.0671L24.4656 19.0686Z" fill="#F8F8F8"/>
</g>
</svg>
